<?xml version="1.0" standalone="no"?>
<!DOCTYPE svg PUBLIC "-//W3C//DTD SVG 20010904//EN"
 "http://www.w3.org/TR/2001/REC-SVG-20010904/DTD/svg10.dtd">
<svg version="1.0" xmlns="http://www.w3.org/2000/svg"
 width="400" height="400" viewBox="0 0 1920.000000 2400.000000"
 preserveAspectRatio="xMidYMid meet">
<metadata>
Created by potrace 1.16, written by Peter Selinger 2001-2019
</metadata>
<g transform="translate(0.000000,2400.000000) scale(0.100000,-0.100000)"
fill="#000000" stroke="none">
<path d="M0 12000 l0 -12000 9600 0 9600 0 0 12000 0 12000 -9600 0 -9600 0 0
-12000z m9442 4463 c13 -35 23 -41 32 -20 4 8 9 6 18 -7 33 -50 74 -75 61 -38
-5 16 -5 16 12 0 15 -14 16 -20 6 -32 -13 -16 -7 -36 11 -36 5 0 8 6 5 14 -4
9 0 13 11 11 9 -2 27 -4 40 -4 20 -1 21 -3 11 -22 -10 -20 -9 -21 10 -16 25 6
79 -52 58 -65 -8 -5 -7 -8 3 -12 23 -7 121 -14 115 -8 -11 11 58 32 99 30 40
-1 40 -1 6 -5 -19 -3 -39 -9 -45 -15 -7 -7 -2 -9 18 -4 28 7 38 -8 12 -18 -9
-3 -15 -13 -13 -22 2 -9 -3 -19 -9 -21 -8 -3 -13 4 -13 14 0 14 -6 19 -22 17
-13 -1 -29 -3 -35 -3 -25 -2 -13 -18 25 -34 l37 -16 -33 5 c-29 5 -34 3 -47
-28 -8 -18 -14 -29 -15 -24 0 5 -3 7 -6 4 -9 -10 23 -65 51 -86 20 -16 25 -28
23 -56 -2 -38 31 -86 61 -86 9 0 25 -7 35 -15 22 -17 32 -55 15 -55 -18 0 13
-32 43 -44 15 -7 44 -28 65 -47 48 -44 198 -141 396 -254 142 -81 170 -105
192 -157 l15 -38 -24 10 c-14 5 -44 23 -67 40 -24 17 -50 28 -58 25 -9 -3 -13
-3 -9 0 11 12 -31 45 -58 45 -21 0 -24 -4 -19 -20 4 -14 2 -20 -7 -18 -9 2
-13 -10 -13 -42 0 -51 17 -60 26 -15 4 17 7 24 8 17 0 -7 6 -10 12 -7 10 7 25
-5 67 -48 19 -20 159 -89 237 -117 48 -18 108 -21 122 -6 11 11 -48 65 -79 71
-16 4 -27 9 -24 12 3 3 29 -2 57 -11 42 -14 54 -15 60 -4 12 18 11 36 -1 43
-5 3 -10 10 -10 15 0 5 13 -4 29 -18 16 -15 41 -36 55 -47 29 -23 33 -35 11
-35 -14 0 -14 -3 0 -30 9 -16 20 -30 26 -30 7 0 9 -12 7 -29 -2 -17 -2 -29 1
-28 8 3 38 -29 89 -92 44 -56 48 -66 32 -76 -5 -3 -10 -19 -10 -34 0 -15 -4
-31 -10 -37 -6 -6 0 -20 16 -39 17 -20 24 -24 20 -11 -6 19 9 46 25 46 5 0 9
-8 9 -18 0 -28 60 -216 74 -230 18 -18 108 -23 102 -5 -9 21 9 15 32 -12 26
-30 55 -32 89 -5 14 11 22 20 17 20 -11 0 18 20 29 20 5 0 5 -5 1 -11 -4 -7 0
-9 14 -5 15 5 21 1 26 -18 4 -16 11 -23 20 -20 7 3 16 -2 20 -11 10 -26 28 -6
26 29 -1 17 -2 35 -1 41 2 20 30 -33 42 -78 10 -43 14 -47 41 -47 29 0 30 1
24 38 -6 35 -6 36 9 17 42 -55 40 -54 112 -49 41 3 74 11 85 21 14 13 23 14
45 4 19 -7 39 -8 60 -2 17 5 34 7 36 4 3 -2 15 1 27 7 15 8 19 17 14 32 -4 15
-2 19 7 15 74 -30 82 -30 169 4 148 56 308 152 318 191 2 10 10 18 17 18 16 0
63 55 75 85 10 27 76 60 93 47 7 -5 23 -8 37 -7 24 2 60 -19 60 -35 0 -4 -16
-11 -35 -14 -20 -4 -33 -11 -30 -15 6 -11 -20 -33 -28 -24 -4 3 -7 1 -7 -5 0
-7 5 -12 11 -12 6 0 8 -9 4 -20 -5 -16 -2 -20 14 -20 12 0 21 5 21 11 0 7 10
9 26 6 15 -2 31 2 40 10 12 13 99 19 180 14 6 -1 21 -24 33 -52 16 -35 33 -55
55 -66 17 -8 39 -25 48 -38 20 -26 14 -59 -9 -51 -10 4 -13 0 -11 -17 2 -16 9
-22 26 -21 32 1 28 -15 -24 -108 -28 -49 -47 -96 -47 -115 -1 -37 21 -83 39
-83 19 0 27 -19 15 -34 -6 -7 -8 -16 -4 -19 3 -4 0 -13 -6 -21 -10 -12 -8 -17
8 -25 11 -6 29 -11 41 -11 16 0 20 -4 16 -18 -8 -24 24 -38 80 -37 43 1 47 -4
26 -42 -11 -21 -10 -22 21 -20 38 3 87 37 87 61 0 12 -10 16 -41 16 -48 0 -44
19 4 21 29 1 30 2 7 8 -17 5 -26 16 -31 39 -7 35 -2 40 15 17 15 -20 75 -9 77
14 3 24 6 45 9 56 1 6 2 13 1 18 -2 14 37 7 57 -10 25 -22 38 -93 16 -93 -19
0 -18 -17 4 -29 14 -8 15 -13 4 -31 -14 -23 -14 -154 0 -182 10 -21 -8 -34
-26 -19 -7 6 -15 8 -18 6 -3 -3 -4 6 -3 20 3 27 -17 34 -45 14 -12 -9 -13 -10
0 -7 8 3 21 -10 32 -31 26 -51 17 -61 -16 -18 -21 27 -36 37 -56 37 -38 0 -51
-20 -52 -80 -1 -38 -5 -50 -15 -46 -7 3 -13 1 -13 -4 0 -6 7 -10 15 -10 8 0
15 -6 15 -13 0 -8 14 -12 39 -12 43 0 55 -7 49 -26 -3 -8 -9 -6 -21 5 -15 16
-18 16 -23 2 -3 -9 -12 -16 -20 -16 -7 0 -16 -11 -20 -25 -10 -39 30 -75 84
-75 23 0 42 4 42 10 0 5 7 7 15 4 8 -4 15 -11 15 -18 0 -6 14 -21 32 -33 l31
-22 20 37 c27 51 28 51 21 -1 -5 -38 -3 -51 11 -68 11 -11 24 -18 31 -15 6 2
17 -1 23 -7 8 -8 11 -8 11 1 0 13 49 61 62 62 10 0 -3 -104 -14 -108 -15 -6
-8 -41 10 -54 11 -7 24 -23 31 -36 9 -17 18 -21 35 -16 23 6 23 5 12 -47 -11
-48 -16 -54 -45 -62 -35 -8 -101 13 -101 33 0 6 -7 10 -15 10 -8 0 -16 7 -16
15 -1 8 -2 21 -3 28 -1 6 5 11 12 10 14 -3 16 13 2 22 -6 3 -13 0 -16 -9 -3
-8 -12 -12 -21 -9 -12 5 -14 1 -8 -18 4 -13 12 -25 16 -27 11 -4 12 -23 2 -19
-13 4 -15 -6 -7 -28 11 -31 114 -128 155 -146 26 -12 41 -14 54 -7 17 10 102
6 193 -8 42 -7 43 -6 32 13 -21 32 -70 48 -155 49 -100 1 -105 1 -105 17 0 9
31 13 113 15 93 2 116 0 127 -12 7 -9 16 -13 22 -10 11 7 58 -42 58 -61 0 -8
-4 -17 -10 -20 -5 -3 -10 -10 -10 -16 0 -14 54 -11 75 5 19 14 77 11 83 -4 2
-4 16 -3 33 3 22 9 34 9 49 -1 13 -8 21 -8 26 -1 4 8 9 7 15 -2 18 -28 9 -39
-31 -39 -28 0 -47 -7 -62 -22 l-22 -22 25 -9 c51 -20 74 -32 82 -45 4 -7 24
-19 43 -27 19 -8 43 -29 55 -49 22 -38 40 -49 67 -39 14 5 15 3 5 -8 -18 -18
-16 -46 3 -53 26 -10 30 -8 57 32 21 32 35 41 88 57 35 10 71 24 80 32 23 19
41 16 37 -8 -2 -13 6 -26 24 -37 26 -15 29 -15 55 4 35 26 63 36 63 24 0 -5
-9 -26 -21 -46 -20 -36 -20 -38 -2 -54 21 -21 83 -35 83 -19 0 6 8 9 18 7 11
-2 26 3 34 10 16 13 137 37 145 28 13 -12 -12 -24 -60 -30 -44 -6 -60 -14 -88
-42 -19 -20 -57 -47 -85 -60 -29 -13 -57 -31 -64 -39 -7 -8 -17 -15 -22 -15
-6 0 -6 6 1 14 18 22 -7 31 -29 11 -23 -21 -35 -87 -21 -112 6 -10 11 -15 11
-11 0 4 14 2 31 -4 26 -9 29 -12 15 -20 -39 -22 -5 -65 36 -44 18 10 30 10 44
3 17 -9 18 -9 5 6 -8 11 -21 15 -32 12 -13 -4 -19 -1 -19 9 0 20 18 20 64 1
37 -16 48 -35 20 -35 -9 0 -14 -6 -11 -12 2 -8 -15 -22 -40 -35 -25 -11 -51
-30 -59 -42 -9 -12 -25 -21 -37 -21 -26 0 -97 -55 -97 -76 0 -8 -8 -14 -19
-14 -10 0 -30 -9 -45 -21 -23 -18 -26 -27 -26 -83 0 -61 0 -62 33 -71 22 -7
38 -22 52 -47 11 -21 25 -38 32 -38 7 0 16 -6 20 -13 4 -8 16 -16 25 -20 13
-4 18 1 23 24 6 25 9 27 21 15 7 -8 27 -17 43 -21 17 -4 28 -11 25 -18 -3 -9
6 -11 28 -9 85 8 117 15 122 27 5 13 -22 44 -77 88 -19 15 -26 28 -22 39 4 9
12 15 20 12 7 -3 19 2 28 10 9 9 20 16 26 16 6 0 11 15 11 34 0 25 -6 38 -25
50 -13 9 -30 16 -36 16 -17 0 -49 30 -49 45 0 14 18 12 104 -9 59 -15 82 -13
71 5 -4 5 -1 9 4 9 6 0 11 -4 11 -10 0 -5 12 -10 26 -10 14 0 23 4 20 8 -2 4
-1 14 4 22 7 11 13 12 36 2 24 -11 31 -10 65 13 68 45 114 23 96 -47 -8 -29 9
-48 43 -48 34 0 69 -35 52 -52 -20 -20 -14 -38 13 -38 18 0 25 -5 25 -20 0
-15 -7 -20 -24 -20 -14 0 -28 5 -31 11 -14 22 -30 1 -27 -34 3 -35 2 -37 -25
-37 -21 0 -40 -12 -68 -40 -21 -22 -46 -40 -55 -40 -8 0 -27 -7 -42 -14 -16
-8 -28 -11 -28 -5 0 5 -12 9 -26 9 -14 0 -23 -4 -20 -9 8 -12 -21 -34 -34 -26
-6 3 -10 -3 -10 -15 0 -26 -44 -46 -115 -53 -57 -5 -112 -23 -136 -43 -20 -18
-124 -37 -155 -30 -32 8 -74 -3 -74 -20 0 -7 -8 -18 -17 -23 -10 -6 -12 -11
-5 -11 6 0 12 -7 12 -15 0 -8 7 -15 15 -15 8 0 15 9 15 20 0 11 3 20 7 20 12
0 53 -43 53 -57 0 -7 7 -13 15 -13 10 0 15 -10 15 -28 0 -28 20 -54 50 -65 12
-4 11 -6 -2 -6 -10 -1 -18 -5 -18 -10 0 -11 65 -21 120 -19 19 0 48 -4 63 -11
16 -6 35 -11 43 -11 8 0 14 -4 14 -10 0 -5 7 -10 15 -10 8 0 15 -5 15 -11 0
-5 5 -7 10 -4 11 7 52 -16 78 -42 8 -7 17 -11 22 -8 15 9 54 -58 56 -97 1 -29
-2 -38 -14 -38 -23 0 -85 23 -100 37 -16 16 -105 40 -169 47 -28 3 -69 14 -90
26 -21 11 -45 20 -55 20 -9 0 -20 5 -23 10 -9 15 -25 12 -25 -6 0 -9 -5 -12
-12 -8 -16 10 -37 -23 -30 -48 4 -15 2 -19 -7 -13 -10 5 -11 2 -6 -14 7 -22
-4 -28 -20 -12 -6 6 -11 1 -11 -15 -2 -31 -8 -37 -37 -39 -15 -2 -21 -8 -20
-21 5 -36 4 -119 -1 -144 -2 -14 -5 -30 -5 -36 -1 -7 -8 -15 -17 -18 -12 -4
-15 -2 -10 9 4 10 -1 15 -14 15 -24 0 -24 -1 -5 43 17 41 20 91 5 82 -5 -3
-10 2 -10 12 0 28 -52 47 -92 34 -21 -7 -47 -7 -71 -2 -20 5 -46 7 -56 4 -23
-6 -61 25 -54 43 7 19 -42 68 -61 61 -10 -4 -16 -1 -16 8 0 8 -12 18 -27 21
-16 4 -34 11 -41 17 -7 5 -37 9 -66 8 -39 -1 -59 4 -78 18 -32 25 -71 35 -105
26 -21 -5 -24 -8 -12 -16 12 -8 12 -10 -1 -19 -20 -12 -21 -69 -2 -98 9 -14
12 -26 6 -30 -6 -4 -20 -23 -32 -43 -24 -39 -54 -58 -92 -57 -43 1 -104 -21
-134 -47 -16 -14 -34 -24 -40 -22 -12 4 -65 -89 -66 -115 0 -34 27 -35 33 -1
0 5 10 16 21 25 20 15 21 15 28 0 14 -36 7 -69 -27 -116 -49 -69 -107 -116
-133 -109 -39 10 -68 -6 -98 -52 -25 -41 -29 -43 -36 -25 -11 29 -25 25 -30
-9 -3 -23 -1 -28 11 -23 13 4 13 2 -1 -15 -11 -12 -18 -36 -18 -61 0 -34 -3
-42 -19 -42 -10 0 -24 7 -31 15 -7 8 -19 15 -27 15 -13 0 -14 12 -8 68 5 56 4
71 -10 82 -24 20 -44 -3 -27 -30 20 -32 15 -65 -12 -80 -14 -7 -22 -18 -19
-26 3 -8 -1 -14 -11 -14 -15 0 -15 -2 -1 -31 13 -25 19 -28 31 -19 11 10 22 9
53 -3 21 -9 41 -13 45 -10 3 4 6 1 6 -5 0 -7 5 -12 10 -12 15 0 47 -35 55 -59
5 -18 2 -21 -25 -21 -35 0 -71 16 -83 36 -8 14 -37 20 -37 7 0 -4 10 -17 22
-30 17 -19 19 -26 9 -36 -13 -12 -28 1 -74 67 -9 14 -47 47 -83 74 -82 63
-140 72 -253 42 -92 -23 -125 -46 -129 -88 -2 -18 -6 -32 -10 -32 -4 0 -22 14
-40 31 -28 26 -37 30 -55 21 -12 -6 -16 -11 -9 -11 6 -1 12 -14 12 -29 0 -15
5 -33 12 -40 8 -8 8 -12 1 -12 -14 0 -36 53 -35 88 0 15 -7 39 -14 55 -13 24
-20 27 -64 27 -37 0 -55 5 -70 20 -11 11 -20 23 -21 28 0 4 -2 17 -5 30 -3 16
1 22 15 22 29 0 32 25 7 49 -33 31 -50 26 -85 -26 -21 -31 -31 -41 -30 -28 2
26 -11 65 -21 65 -4 0 -10 -7 -14 -15 -8 -23 -36 -18 -36 6 0 31 -19 59 -39
59 -15 0 -18 -5 -14 -22 5 -20 2 -19 -26 10 -34 34 -81 44 -81 17 0 -19 -41
-36 -70 -28 -17 4 -20 11 -16 29 9 34 -26 32 -53 -2 -26 -34 -27 -47 -1 -39
29 9 25 -4 -5 -15 -14 -5 -25 -15 -25 -22 0 -10 2 -10 8 -1 7 10 12 10 26 0
18 -13 18 -15 2 -39 -9 -14 -29 -31 -44 -37 -25 -12 -25 -14 -9 -25 9 -7 17
-21 17 -30 0 -10 8 -16 25 -16 16 0 25 6 25 15 0 18 12 19 28 3 8 -8 8 -17 1
-30 -12 -23 4 -48 31 -48 30 0 30 -27 -1 -54 -31 -28 -36 -41 -19 -51 16 -10
12 -39 -8 -51 -10 -7 -38 -15 -62 -19 -25 -4 -58 -14 -73 -22 -37 -19 -94 -82
-135 -152 -19 -31 -36 -58 -38 -60 -8 -9 -53 42 -59 67 -3 15 -18 39 -31 53
l-25 27 32 11 c17 6 44 11 58 11 36 0 120 55 131 85 6 15 17 25 29 25 28 0 37
20 9 21 -22 0 -22 1 -3 9 15 7 16 9 4 9 -9 1 -22 -6 -29 -14 -12 -14 -23 -15
-20 0 2 13 -85 75 -92 64 -2 -2 -13 -18 -25 -35 -19 -28 -20 -36 -11 -68 12
-38 3 -62 -13 -34 -5 9 -17 24 -26 33 -12 12 -13 19 -4 28 18 18 13 48 -9 54
-11 3 -20 14 -20 24 0 15 -6 18 -29 15 -26 -3 -33 2 -53 40 -13 24 -29 44 -35
44 -7 0 -13 8 -14 18 0 10 -3 12 -6 5 -2 -7 -13 -13 -23 -13 -32 0 -48 -11
-44 -28 6 -24 -71 -66 -116 -63 -51 3 -63 17 -42 49 20 33 60 72 73 72 5 0 9
7 9 15 0 9 -9 15 -24 15 -36 0 -40 16 -12 45 20 20 31 23 55 19 20 -4 31 -2
31 5 0 6 9 11 20 11 30 0 36 28 11 54 -11 12 -21 27 -21 33 0 6 -8 14 -17 18
-10 3 -18 6 -18 6 0 -6 -80 30 -83 38 -5 14 55 15 63 1 4 -6 16 -8 28 -4 12 3
19 3 15 -1 -8 -9 15 -35 31 -35 17 0 13 18 -5 28 -26 14 -7 32 32 29 38 -2 43
-13 17 -33 -17 -12 -17 -14 2 -28 11 -8 33 -18 49 -22 15 -3 36 -14 45 -23 9
-9 31 -23 49 -30 18 -7 32 -19 32 -25 0 -6 12 -19 26 -29 20 -15 28 -16 39 -7
12 10 15 9 15 -3 0 -25 20 -30 41 -11 14 13 18 25 14 45 l-6 28 80 -3 79 -2
22 38 c16 29 19 42 10 57 -12 24 -41 21 -128 -10 -65 -23 -61 -24 -72 5 -6 16
-19 25 -42 28 -18 3 -36 1 -39 -4 -4 -7 -13 -7 -25 1 -11 6 -13 11 -6 11 15 0
16 40 1 40 -6 0 -9 7 -6 14 4 10 1 13 -9 9 -7 -3 -14 0 -14 6 0 18 -19 13 -54
-14 -54 -41 -87 -31 -125 38 -27 48 -27 47 8 47 17 0 33 5 36 10 4 6 15 8 25
5 33 -11 32 15 -5 80 -24 43 -42 65 -54 65 -10 0 -24 6 -30 14 -21 25 -60 28
-89 8 -61 -42 -103 -55 -162 -49 -30 4 -72 13 -91 21 -36 15 -70 46 -51 46 5
0 20 27 32 60 12 33 27 63 31 66 14 8 11 52 -3 57 -10 4 -10 7 0 18 6 7 12 17
12 21 0 13 -49 5 -54 -9 -7 -18 -26 -16 -47 3 -17 15 -19 14 -25 -10 -3 -14
-13 -26 -21 -26 -11 0 -13 3 -5 13 6 6 13 28 17 49 6 32 4 38 -19 53 -59 39
-169 68 -253 68 -79 -1 -153 -16 -153 -33 0 -4 -9 -10 -20 -13 -25 -6 -26 -24
-2 -30 12 -3 7 -8 -20 -20 -41 -19 -113 -23 -103 -7 3 6 16 10 28 10 22 0 64
37 53 47 -2 3 -48 -2 -100 -10 -103 -16 -146 -12 -281 30 -69 22 -95 20 -95
-7 0 -17 4 -18 26 -10 14 6 30 8 35 4 18 -11 9 -34 -17 -40 -22 -6 -44 -37
-44 -62 0 -31 109 -101 205 -132 34 -11 37 -14 20 -21 -40 -15 -95 -8 -174 22
-45 17 -83 35 -87 40 -3 5 -11 9 -17 9 -7 -1 -1 -10 13 -22 l25 -21 -39 6
c-40 6 -86 40 -86 64 0 22 -80 52 -112 41 -31 -11 -39 -51 -38 -188 0 -47 -6
-121 -14 -165 -13 -72 -13 -85 2 -128 15 -42 15 -49 2 -57 -12 -7 -15 -32 -14
-125 0 -63 -2 -115 -6 -115 -4 0 -7 6 -7 13 0 6 -6 57 -12 112 l-11 100 -46
42 c-25 23 -44 48 -42 55 5 14 -4 25 -42 51 -13 9 -19 17 -12 17 6 0 29 -15
49 -34 21 -18 48 -38 61 -45 23 -12 22 -13 26 32 1 6 7 17 15 23 20 16 29 374
9 375 -7 0 -24 2 -37 3 -13 2 -40 0 -60 -4 -20 -4 -48 -1 -64 5 l-28 11 23 12
c44 21 65 23 72 7 3 -8 11 -15 17 -15 7 0 2 11 -11 25 -12 13 -28 22 -34 18
-6 -3 -8 -3 -4 2 10 11 -10 35 -28 35 -10 0 -13 -7 -8 -25 5 -21 3 -24 -10
-19 -13 5 -15 14 -11 34 7 30 -10 40 -72 40 -31 0 -32 -2 -26 -30 5 -25 3 -29
-11 -24 -9 3 -16 10 -16 14 0 14 -66 31 -88 23 -33 -13 -85 -91 -78 -119 6
-21 3 -24 -24 -24 -20 0 -30 -5 -30 -15 0 -7 -6 -18 -13 -22 -13 -7 -21 -38
-31 -113 -5 -31 13 -69 44 -97 22 -19 23 -25 13 -42 -23 -38 -6 -54 53 -49 30
3 54 1 54 -4 0 -4 -30 -8 -66 -8 -59 0 -68 3 -94 29 -16 16 -32 26 -36 22 -4
-3 -5 1 -1 11 3 9 3 19 -1 23 -4 3 -7 12 -7 18 -1 31 -66 149 -84 154 -12 3
-25 20 -32 41 -7 20 -18 42 -25 50 -12 11 -13 8 -8 -17 4 -17 3 -31 -2 -31
-12 0 -50 58 -46 71 1 6 -2 8 -8 4 -5 -3 -10 -1 -10 5 0 6 -12 9 -27 8 -24 -3
-29 2 -40 34 -7 20 -14 72 -17 115 -3 43 -2 67 0 53 3 -14 10 -29 15 -35 5 -5
10 -23 10 -40 1 -18 5 -9 10 25 4 30 5 65 3 76 -3 12 -1 25 5 29 15 9 3 27
-12 19 -8 -5 -8 -3 0 6 10 11 10 17 -3 31 -16 18 -11 44 7 34 13 -9 11 9 -3
23 -8 8 -9 12 -1 12 6 0 13 -6 15 -12 3 -9 12 -8 32 6 18 11 37 15 52 12 14
-4 24 -2 24 4 0 5 -3 10 -7 10 -11 0 -34 52 -27 59 3 3 14 -4 24 -16 10 -13
27 -23 38 -23 11 0 22 -5 24 -10 2 -6 22 5 46 25 23 20 40 41 36 46 -3 5 -2 9
3 8 20 -3 30 3 46 30 l17 29 -34 0 c-19 0 -40 3 -45 7 -6 3 -14 -1 -17 -9 -3
-9 -10 -16 -16 -16 -5 0 -6 5 -3 10 3 6 -5 10 -19 10 -26 0 -62 28 -50 39 4 3
9 0 11 -6 5 -13 33 -19 33 -8 0 4 -7 19 -15 35 -8 16 -12 35 -9 43 3 9 -7 22
-29 36 -39 24 -47 26 -47 10 0 -5 5 -7 10 -4 18 11 11 -7 -10 -25 -21 -18 -28
-66 -15 -120 7 -34 7 -35 -12 -17 -11 9 -28 17 -37 17 -14 0 -17 5 -11 23 19
64 23 92 14 108 -13 24 -12 49 1 29 7 -11 10 -7 10 17 0 17 5 33 11 35 7 2 13
31 15 69 l2 64 -39 -3 c-29 -3 -39 0 -39 10 0 8 -9 23 -20 33 -11 10 -20 30
-20 44 0 20 -2 23 -10 11 -5 -8 -10 -10 -10 -4 0 7 8 22 18 34 l18 23 21 -35
c11 -19 27 -35 34 -36 8 -1 29 -5 48 -8 30 -6 33 -4 28 11 -8 20 20 85 37 85
24 0 38 -18 31 -39 -3 -12 -4 -35 0 -51 6 -28 10 -30 50 -30 40 0 44 -2 47
-27 2 -23 7 -27 26 -25 13 2 39 -4 59 -13 19 -9 37 -15 39 -12 9 9 -8 37 -23
37 -8 0 -11 4 -8 10 12 19 -6 80 -24 80 -13 0 -14 2 -2 9 21 13 51 -9 52 -39
1 -17 4 -13 8 13 3 21 11 39 16 40 15 3 18 -41 5 -74 -13 -30 -7 -79 10 -79 5
0 17 23 27 50 18 51 32 65 34 33 0 -10 2 -33 3 -50 2 -18 0 -33 -5 -33 -21 0
-7 -31 21 -45 28 -14 30 -14 31 2 1 17 2 17 6 1 6 -23 72 -22 81 1 3 9 9 19
14 22 11 7 11 29 2 90 -5 41 -13 51 -54 83 -30 23 -54 34 -64 30 -13 -5 -16 1
-16 30 0 20 -5 36 -11 36 -5 0 -22 26 -36 58 -22 45 -28 52 -31 35 -4 -29 -40
-31 -75 -3 -33 26 -42 25 -75 -5 -15 -14 -32 -25 -39 -25 -9 0 -13 -15 -13
-44 0 -40 -2 -43 -26 -42 -24 1 -26 5 -28 43 -2 43 -15 68 -23 46 -6 -16 -49
-17 -58 -3 -4 6 -1 18 6 26 10 13 10 17 -2 24 -8 5 -14 24 -14 42 0 18 -4 34
-10 35 -5 1 -9 -7 -8 -17 2 -13 -2 -17 -12 -14 -18 7 -19 26 -4 41 5 5 12 27
15 48 2 21 12 43 20 49 18 13 29 83 20 119 -3 14 -15 27 -27 30 -15 4 -20 11
-15 23 4 11 -1 26 -15 40 -19 21 -20 25 -8 54 8 17 24 33 37 36 12 4 22 10 22
15 0 5 8 13 18 16 37 15 51 38 54 93 3 46 7 56 27 66 18 9 27 9 36 1 14 -13 9
-31 -6 -22 -5 4 -9 1 -9 -4 0 -6 6 -11 13 -11 18 0 42 18 35 26 -4 3 0 13 8
21 10 11 13 25 8 46 -5 26 -4 29 11 23 12 -4 23 0 32 14 8 11 21 20 29 20 12
0 14 9 9 48 -3 26 -8 74 -9 106 -4 63 -17 82 -66 92 -65 14 -70 20 -70 80 0
55 -1 56 -18 41 -10 -10 -26 -17 -35 -17 -9 0 -17 -6 -17 -14 0 -8 -7 -16 -15
-20 -25 -9 -19 2 23 49 24 27 -2 15 -52 -23 -27 -20 -56 -41 -65 -47 -9 -5
-18 -12 -21 -15 -36 -36 -64 -53 -92 -56 -18 -2 -45 -7 -61 -10 -16 -4 -33 -1
-42 6 -14 12 -12 17 12 42 19 20 36 28 54 26 15 -1 35 4 44 12 14 11 19 12 22
3 6 -17 45 4 91 47 28 25 33 36 27 57 -5 23 -4 25 9 14 13 -11 19 -10 35 10
20 25 19 41 -1 21 -40 -40 -10 30 39 92 21 26 25 28 52 16 16 -6 32 -18 35
-26 3 -8 19 -14 35 -14 37 0 64 34 116 145 44 94 69 125 103 125 21 0 23 3 17
31 -6 27 -5 30 11 25 11 -3 26 -1 34 5 13 9 13 10 -2 6 -9 -3 -18 -2 -20 4 -3
10 -41 12 -162 6 -57 -2 -80 1 -83 10 -3 7 -10 13 -15 13 -6 0 -7 -8 -4 -17 7
-16 -8 -33 -31 -33 -19 0 2 58 29 79 l23 19 -45 13 c-25 7 -47 14 -49 16 -3 2
15 24 39 48 24 25 40 45 35 45 -5 0 -39 -19 -77 -41 l-68 -41 -46 19 -46 20
34 20 c18 12 67 35 108 53 41 18 107 54 145 81 39 26 99 57 135 69 36 12 69
26 74 30 13 13 -11 39 -48 49 l-31 9 33 1 c50 2 38 18 -24 32 -47 11 -57 10
-65 -2 -5 -8 -9 -10 -9 -6 0 5 -12 2 -27 -7 -16 -8 -46 -22 -68 -32 -22 -9
-71 -41 -110 -70 -90 -68 -158 -101 -222 -109 -47 -7 -52 -5 -58 15 -8 25 -12
21 45 48 36 18 260 179 294 212 4 4 -16 11 -47 15 -49 6 -62 4 -119 -24 -35
-17 -81 -34 -103 -36 -22 -3 -33 -2 -25 2 10 4 0 10 -29 18 -25 6 -46 16 -49
23 -3 10 11 11 62 6 53 -5 75 -3 107 11 l41 19 -39 15 c-54 23 -142 83 -182
125 -19 20 -38 36 -42 36 -4 0 -10 -12 -14 -27 -3 -15 -15 -45 -26 -67 -10
-22 -18 -40 -16 -41 1 -2 17 -10 35 -19 17 -9 32 -21 32 -26 0 -5 -15 -1 -32
10 -18 11 -45 20 -60 20 -15 0 -30 5 -33 10 -3 6 -15 10 -26 10 -17 0 -19 -4
-13 -22 18 -51 -2 -102 -34 -91 -15 6 -15 5 1 -14 24 -27 21 -35 -8 -21 -14 6
-25 15 -25 20 0 5 -16 25 -36 44 -33 33 -35 39 -29 78 4 23 15 47 26 55 10 7
19 21 19 31 0 9 11 38 24 63 14 25 30 64 37 87 7 23 20 45 30 51 10 5 20 22
24 39 4 17 11 27 17 24 6 -4 8 1 4 12 -4 12 5 36 24 64 32 48 37 49 19 3 -14
-37 3 -19 34 37 27 49 53 68 38 28 -4 -12 -11 -41 -15 -63 -9 -56 10 -25 25
40 6 27 28 84 48 125 21 41 48 104 61 140 13 36 28 71 33 77 10 14 31 7 22 -7
-10 -17 26 -33 65 -27 59 8 260 170 260 210 0 4 -7 7 -15 7 -9 0 -31 6 -50 14
-32 14 -33 16 -23 44 9 24 9 40 -2 74 -8 23 -19 46 -24 50 -17 12 32 89 92
146 31 30 58 49 60 44 4 -13 31 -4 51 16 12 12 12 19 -3 48 -17 37 -13 59 9
50 7 -2 17 7 24 20 6 13 14 23 18 22 5 -1 19 4 32 11 18 10 21 15 10 22 -7 4
-10 11 -6 15 4 4 16 -1 27 -11 11 -10 20 -13 20 -7 0 7 10 12 23 12 12 0 28 9
35 21 12 19 11 20 -10 17 -13 -2 -27 -7 -31 -13 -6 -7 -10 -6 -13 2 -3 7 -12
9 -20 6 -8 -3 -14 0 -14 5 0 13 24 19 67 19 28 0 35 -5 45 -34z m1342 -682
c31 -16 56 -24 56 -19 0 6 29 -17 66 -51 79 -74 181 -127 319 -165 55 -16 102
-31 105 -33 19 -19 -258 55 -284 76 -19 15 -106 62 -106 57 0 -13 -219 143
-220 157 0 11 4 9 64 -22z m629 -711 c23 -16 83 -47 134 -69 93 -41 181 -93
241 -143 33 -28 69 -41 44 -16 -16 16 -15 38 2 38 16 0 31 -34 22 -49 -4 -5 7
-19 24 -31 17 -12 37 -37 45 -56 17 -40 115 -139 146 -147 17 -5 20 -2 16 14
-3 10 -3 19 -1 19 7 0 34 -59 34 -75 0 -21 -36 -19 -52 4 -7 10 -44 46 -83 80
-38 34 -78 69 -89 79 -18 17 -18 15 -13 -41 5 -49 3 -57 -8 -47 -20 17 -53 3
-70 -28 -23 -42 -48 -68 -72 -74 -21 -6 -22 -4 -16 39 5 35 2 50 -14 71 -29
41 -46 89 -40 114 11 39 -74 142 -98 120 -5 -4 -5 -1 -1 5 4 8 -2 17 -18 25
-14 6 -26 15 -26 20 0 5 -4 6 -10 3 -5 -3 -10 -3 -10 2 0 4 -15 25 -34 47 -19
21 -32 44 -29 52 3 8 1 14 -4 14 -11 0 -81 59 -70 60 5 0 27 -13 50 -30z
m-2881 -638 c7 -10 40 -25 73 -34 33 -9 97 -32 143 -53 46 -20 117 -43 158
-50 41 -7 77 -15 80 -18 2 -2 -3 -10 -11 -17 -11 -9 -46 -14 -98 -14 -74 -1
-90 3 -167 37 -47 21 -116 59 -155 85 -55 37 -71 53 -73 75 -3 26 -2 27 17 18
11 -6 26 -19 33 -29z m-602 -302 c15 -11 33 -34 40 -52 6 -18 21 -53 33 -78
35 -73 47 -130 37 -176 -5 -23 -12 -56 -15 -75 -2 -19 -16 -72 -30 -119 -37
-121 -45 -190 -51 -404 -4 -165 -2 -202 16 -288 20 -94 21 -135 25 -836 2
-405 7 -775 10 -822 11 -140 24 -252 35 -305 14 -67 32 -181 36 -230 6 -69 6
-237 0 -243 -3 -3 -6 42 -6 99 0 57 -5 122 -10 144 -5 22 -11 69 -15 105 -6
79 -15 122 -26 135 -4 6 -13 78 -19 160 -6 83 -13 163 -16 179 -3 15 -7 238
-9 495 -4 539 -12 956 -21 1021 -3 25 -12 69 -19 97 -16 61 -22 274 -11 384 6
54 5 83 -4 99 -8 15 -8 20 -1 16 8 -5 11 14 11 60 0 67 -18 128 -70 242 -32
69 -26 155 26 335 7 26 11 54 8 62 -8 21 13 19 46 -5z m2831 -2683 c22 -26 48
-47 56 -47 9 0 13 -6 10 -14 -3 -7 0 -19 6 -25 8 -8 7 -11 -6 -11 -10 0 -25
-12 -35 -27 -16 -27 -72 -44 -72 -22 0 5 4 9 9 9 5 0 7 9 4 20 -3 11 -9 20
-13 20 -4 0 -10 18 -14 40 -3 23 -12 58 -20 80 -7 22 -11 42 -8 44 8 8 38 -16
83 -67z m3339 -306 c20 -16 54 -35 77 -43 33 -11 40 -17 33 -28 -6 -8 -10 -18
-10 -22 0 -11 64 -10 94 2 17 6 26 6 26 0 0 -6 5 -10 11 -10 5 0 7 6 3 13 -5
9 -4 9 6 0 15 -14 40 0 40 23 0 23 41 10 58 -18 9 -15 23 -28 32 -29 80 -6
130 -21 130 -39 0 -16 33 -7 48 13 18 23 32 22 32 -4 0 -16 5 -20 19 -16 24 6
42 -29 30 -60 -6 -18 -3 -26 19 -41 15 -10 35 -17 45 -14 15 3 17 10 11 48 -5
34 -3 44 7 44 8 0 25 17 38 38 14 20 26 31 29 24 2 -6 9 -12 16 -12 7 0 13 -6
14 -12 4 -58 56 -166 87 -180 14 -6 25 -16 25 -21 0 -6 5 -6 13 1 6 5 64 11
127 11 104 2 124 -1 210 -29 92 -30 131 -50 99 -50 -9 0 -19 3 -23 7 -3 4 -14
8 -24 9 -9 1 -51 9 -92 19 -120 27 -165 29 -223 11 -68 -22 -77 -28 -82 -58
-4 -22 -2 -25 15 -21 23 6 60 -21 60 -44 0 -7 4 -13 10 -13 5 0 7 -7 4 -15 -4
-9 -13 -14 -22 -13 -8 2 -17 -3 -19 -9 -3 -7 2 -13 11 -13 19 0 21 -11 4 -28
-29 -29 4 -8 43 27 49 44 64 43 73 -1 4 -22 10 -29 22 -24 25 10 9 -45 -19
-64 -12 -8 -35 -28 -52 -44 -16 -15 -48 -37 -69 -48 -22 -11 -46 -27 -54 -34
-7 -8 -23 -14 -34 -14 -11 0 -35 -9 -52 -19 -23 -15 -56 -21 -121 -24 -50 -3
-78 -3 -62 0 15 2 27 8 27 13 0 21 -71 27 -117 9 -22 -8 -25 -12 -13 -20 11
-7 -4 -9 -50 -7 -69 4 -190 50 -190 73 0 6 9 20 20 30 29 26 25 43 -12 47 -26
2 -34 8 -36 27 -3 15 3 30 13 37 23 17 13 40 -20 48 -44 11 -75 36 -96 78 -19
38 -19 42 -5 86 16 47 11 61 -21 62 -7 0 -13 5 -13 10 0 6 -6 10 -14 10 -8 0
-34 18 -58 41 -41 39 -45 40 -98 36 -30 -3 -68 -8 -85 -12 -16 -3 -25 -3 -19
2 6 4 13 16 17 26 5 14 0 19 -23 24 -18 3 -31 12 -32 22 0 9 -2 21 -2 27 -1 7
-12 21 -26 32 l-25 20 35 -4 c47 -6 89 4 69 16 -11 7 -7 12 19 21 47 16 72 69
32 69 -37 0 -24 19 20 29 3 0 21 -12 40 -28z m-1459 -839 c20 -2 46 1 57 7 18
9 25 7 47 -16 35 -39 32 -50 -15 -43 -8 1 5 -14 30 -34 39 -31 46 -33 52 -18
4 9 7 12 7 5 2 -22 -11 -42 -23 -37 -7 3 -12 -5 -11 -22 0 -26 -11 -36 -49
-48 -13 -5 -15 -10 -8 -19 10 -12 15 -40 13 -67 -1 -12 -4 -12 -12 3 -5 9 -7
23 -3 30 4 6 4 9 -1 5 -8 -8 -13 -2 -50 55 -13 20 -14 27 -5 25 8 -2 16 5 18
16 2 10 0 16 -6 12 -14 -9 -42 4 -42 19 0 13 -48 30 -57 21 -3 -2 0 -13 6 -24
9 -17 7 -19 -22 -18 -27 1 -32 5 -29 25 2 14 -5 31 -19 44 -17 16 -19 22 -8
25 8 2 21 6 29 9 8 4 19 5 23 4 5 -1 6 3 3 8 -3 5 -15 7 -26 4 -14 -4 -20 0
-20 12 0 14 6 16 33 12 17 -3 26 -3 19 0 -6 2 -9 9 -6 15 3 5 13 6 23 2 9 -4
32 -9 52 -12z m729 -35 c0 7 30 -10 66 -37 68 -52 107 -60 126 -25 12 20 62
21 54 0 -7 -19 8 -19 38 0 22 15 24 14 29 -6 4 -16 10 -19 27 -14 20 6 21 4
14 -17 -4 -12 -8 -32 -9 -43 -1 -15 -14 -23 -48 -33 -26 -7 -48 -19 -48 -25
-1 -7 -2 -19 -3 -27 -2 -26 -44 -22 -112 10 -47 22 -64 34 -56 42 17 17 3 36
-33 48 -22 7 -32 16 -29 25 3 7 -6 30 -19 51 -14 20 -23 43 -20 51 5 12 7 12
14 1 6 -9 9 -9 9 -1z m-1487 -304 c-10 -26 -12 -38 -4 -41 18 -6 12 -37 -14
-77 -15 -20 -24 -39 -21 -42 2 -3 -2 -23 -10 -46 -14 -42 -48 -75 -59 -57 -3
5 -1 11 5 15 14 8 13 62 -1 67 -9 3 -9 9 0 25 6 12 11 37 11 55 0 42 12 60 33
53 11 -5 21 3 33 27 32 63 51 78 27 21z m-3 -222 c0 -11 -5 -23 -10 -26 -6 -4
-4 -12 5 -22 13 -12 18 -13 31 -2 12 10 17 10 27 -1 9 -10 9 -14 -1 -17 -15
-6 43 -55 88 -73 35 -15 37 -21 10 -45 -16 -14 -19 -26 -14 -48 5 -22 3 -28
-7 -25 -17 5 -40 51 -48 93 -5 24 -17 35 -56 54 -46 22 -49 22 -62 5 -7 -10
-13 -24 -13 -31 0 -7 -5 -13 -10 -13 -19 0 -22 29 -6 52 9 12 16 32 16 43 0
30 23 75 38 75 6 0 12 -9 12 -19z"/>
<path d="M10220 15565 c0 -8 9 -20 20 -27 11 -7 20 -18 20 -24 0 -6 9 -19 20
-29 11 -10 20 -23 20 -30 0 -22 22 -35 38 -22 13 10 14 8 8 -16 -10 -41 1 -69
25 -62 14 5 19 2 19 -13 0 -11 6 -25 14 -31 11 -9 13 -3 10 35 -3 51 -11 65
-23 45 -6 -9 -10 -6 -13 12 -3 17 -1 24 7 21 6 -3 30 -1 53 4 27 6 44 6 51 -1
6 -6 13 -8 15 -6 8 8 -78 60 -90 55 -7 -3 -15 1 -17 8 -5 13 -126 76 -146 76
-6 0 -11 5 -11 10 0 6 -4 10 -10 10 -5 0 -10 -7 -10 -15z"/>
<path d="M8779 15339 c-11 -11 -29 -38 -38 -60 -10 -21 -20 -36 -24 -33 -3 3
-15 -13 -26 -37 -12 -23 -19 -44 -18 -46 2 -1 19 15 37 37 18 22 41 40 49 40
9 0 27 -17 41 -38 14 -20 29 -40 35 -44 31 -23 142 13 170 56 27 41 16 69 -32
84 -25 8 -43 20 -43 29 0 8 -6 13 -12 11 -7 -3 -19 1 -26 9 -17 16 -35 17 -29
1 3 -10 -27 -48 -39 -48 -1 0 1 14 6 30 7 26 6 30 -11 30 -10 0 -28 -9 -40
-21z"/>
<path d="M9028 15198 c-19 -18 -28 -41 -33 -82 -4 -31 -12 -59 -17 -62 -14 -9
-29 19 -18 30 6 6 10 17 10 26 0 12 -2 13 -9 1 -5 -8 -16 -11 -26 -7 -13 5
-16 2 -11 -10 5 -13 2 -14 -11 -8 -10 5 -46 9 -81 9 -51 0 -59 2 -46 12 9 7
21 14 27 16 15 5 -11 47 -28 47 -8 0 -15 5 -15 11 0 26 -46 2 -65 -34 -18 -34
-18 -39 -4 -50 8 -7 24 -24 33 -39 10 -16 23 -28 28 -28 6 0 25 -7 44 -16 23
-11 49 -14 86 -11 98 10 118 17 134 51 8 17 20 41 27 52 l13 22 21 -24 c27
-30 38 -30 67 1 31 33 32 75 2 75 -12 0 -28 6 -35 13 -11 10 -13 10 -7 0 5 -9
-1 -13 -17 -13 -15 0 -28 8 -34 22 l-10 22 -25 -26z"/>
<path d="M14597 12659 c-9 -5 -21 -8 -26 -5 -4 3 -27 -3 -50 -14 -31 -15 -41
-26 -41 -44 0 -20 9 -25 67 -41 89 -24 182 -24 200 1 21 28 12 58 -17 62 -14
2 -30 10 -37 18 -7 10 -13 12 -18 4 -9 -15 -25 -2 -18 15 6 18 -32 20 -60 4z"/>
<path d="M14714 12355 c-34 -32 -64 -40 -64 -17 0 4 -16 9 -35 10 -40 3 -100
-22 -109 -44 -9 -24 12 -64 33 -64 11 0 22 -6 25 -12 5 -10 7 -10 12 0 9 19
62 15 66 -5 3 -14 13 -9 46 27 23 25 55 59 72 77 27 29 29 33 14 47 -8 9 -17
16 -19 16 -2 0 -20 -16 -41 -35z"/>
<path d="M9284 12132 c-17 -14 -22 -30 -23 -75 0 -32 3 -57 9 -57 6 0 10 -7
10 -15 0 -8 5 -15 10 -15 6 0 10 -4 10 -10 0 -5 -9 -10 -20 -10 -11 0 -20 -6
-20 -13 0 -16 124 -15 160 2 82 39 100 57 100 102 0 45 -5 47 -38 17 -22 -22
-24 -22 -36 -5 -16 21 -26 22 -26 2 0 -8 -8 -15 -18 -15 -17 0 -25 15 -48 98
-5 18 -46 14 -70 -6z"/>
<path d="M13462 12134 c-7 -8 -17 -12 -23 -9 -5 4 -9 -15 -9 -44 0 -28 4 -51
9 -51 5 0 11 -9 14 -21 4 -15 2 -19 -9 -15 -26 10 -14 -11 14 -24 l27 -13 -30
-9 c-19 -5 -46 -4 -73 3 -34 9 -48 20 -65 50 -22 38 -49 50 -63 28 -3 -6 0
-15 7 -20 11 -7 11 -9 1 -9 -20 0 -5 -40 27 -72 14 -14 39 -40 54 -57 16 -18
38 -31 52 -31 13 0 35 -4 49 -10 18 -6 41 -5 78 6 29 8 71 17 93 20 69 10 67
18 -9 59 -25 13 -53 63 -62 109 -3 20 -9 36 -13 36 -4 0 -13 15 -19 34 -17 45
-33 58 -50 40z"/>
<path d="M14380 12110 c0 -5 5 -10 11 -10 6 0 9 -6 6 -14 -3 -8 6 -27 19 -42
21 -22 25 -33 19 -61 -5 -27 -3 -34 7 -31 7 3 14 15 16 29 4 30 23 69 34 69 4
0 8 -24 8 -53 0 -42 4 -55 20 -65 35 -21 60 0 53 46 -3 20 -10 50 -17 65 -12
29 -53 48 -65 29 -5 -8 -18 -1 -40 18 -31 29 -71 40 -71 20z"/>
<path d="M14141 12065 c-17 -19 -36 -35 -42 -35 -17 0 -6 -95 14 -114 9 -9 30
-19 46 -22 25 -5 31 -3 31 10 0 13 8 15 39 11 l39 -5 -4 38 c-2 20 -4 51 -4
67 0 43 -20 76 -41 70 -9 -3 -20 -1 -24 5 -10 17 -21 12 -54 -25z"/>
<path d="M13665 12030 c17 -7 15 -9 -12 -9 -26 -1 -33 -5 -33 -20 0 -11 -5
-21 -12 -23 -16 -6 20 -58 41 -58 9 0 34 -7 56 -15 48 -17 85 -19 85 -4 0 6
-13 28 -28 48 -15 20 -34 48 -41 64 -11 21 -21 27 -45 26 -26 0 -28 -2 -11 -9z"/>
<path d="M10350 11720 c0 -5 -6 -10 -14 -10 -8 0 -17 -8 -21 -19 -6 -20 3 -51
15 -51 4 0 10 -9 13 -20 7 -28 35 -36 51 -15 10 14 22 17 54 12 23 -3 44 -1
47 3 3 4 14 6 25 3 25 -7 26 7 1 35 -20 24 -41 29 -41 10 0 -6 -9 -2 -20 10
-12 12 -29 22 -38 22 -10 0 -27 7 -38 15 -23 17 -34 19 -34 5z"/>
</g>
</svg>
